<svg width="14" height="14" viewBox="0 0 14 14" fill="none" xmlns="http://www.w3.org/2000/svg">
<path d="M7 2.3125C9.58897 2.3125 11.6875 4.41103 11.6875 7C11.6875 9.58897 9.58897 11.6875 7 11.6875H6.99805C6.27454 11.6887 5.56066 11.5209 4.91309 11.1982H4.91211C4.46161 10.974 3.98364 11.041 3.63867 11.126L3.62988 11.1279C3.45922 11.1716 3.29038 11.2223 3.12402 11.2803H3.12305L3.07812 11.2959C2.94639 11.34 2.83914 11.3762 2.74512 11.4014C2.7157 11.4092 2.69621 11.4072 2.68262 11.4033C2.66614 11.3985 2.64723 11.3875 2.62988 11.3701C2.61246 11.3527 2.60244 11.3331 2.59766 11.3164C2.59381 11.3029 2.59117 11.2846 2.59863 11.2559C2.62373 11.1626 2.65935 11.0541 2.70215 10.9268L2.71973 10.877V10.876C2.7777 10.7096 2.82835 10.5408 2.87207 10.3701L2.875 10.3594C2.95937 10.0141 3.02502 9.53772 2.80273 9.08887L2.80176 9.08691L2.69043 8.84766C2.44715 8.28105 2.3125 7.65678 2.3125 7C2.3125 5.7568 2.80647 4.56462 3.68555 3.68555C4.56462 2.80647 5.7568 2.3125 7 2.3125Z" stroke="#00234C" stroke-width="2"/>
</svg>
