<svg width="20" height="20" viewBox="0 0 20 20" fill="none" xmlns="http://www.w3.org/2000/svg">
<path d="M15.8333 4.99998H14.1667C14.1667 2.66665 12.3333 0.833313 10 0.833313C7.66667 0.833313 5.83333 2.66665 5.83333 4.99998H4.16667C3.25 4.99998 2.5 5.74998 2.5 6.66665V16.6666C2.5 17.5833 3.25 18.3333 4.16667 18.3333H15.8333C16.75 18.3333 17.5 17.5833 17.5 16.6666V6.66665C17.5 5.74998 16.75 4.99998 15.8333 4.99998ZM10 2.49998C11.4167 2.49998 12.5 3.58331 12.5 4.99998H7.5C7.5 3.58331 8.58333 2.49998 10 2.49998ZM15.8333 16.6666H4.16667V6.66665H15.8333V16.6666ZM10 9.99998C8.58333 9.99998 7.5 8.91665 7.5 7.49998H5.83333C5.83333 9.83331 7.66667 11.6666 10 11.6666C12.3333 11.6666 14.1667 9.83331 14.1667 7.49998H12.5C12.5 8.91665 11.4167 9.99998 10 9.99998Z" fill="white"/>
</svg>
