<svg width="28" height="28" viewBox="0 0 28 28" fill="none" xmlns="http://www.w3.org/2000/svg">
<path d="M26.7399 5.83333C25.8416 6.24167 24.8733 6.51 23.8699 6.63833C24.8966 6.02 25.6899 5.04 26.0633 3.86167C25.0949 4.445 24.0216 4.85333 22.8899 5.08667C21.9683 4.08333 20.6733 3.5 19.2033 3.5C16.4616 3.5 14.2216 5.74 14.2216 8.505C14.2216 8.90167 14.2683 9.28667 14.3499 9.64833C10.1966 9.43833 6.49825 7.44333 4.03659 4.42167C3.60492 5.15667 3.35992 6.02 3.35992 6.93C3.35992 8.66833 4.23492 10.2083 5.58825 11.0833C4.75992 11.0833 3.98992 10.85 3.31325 10.5V10.535C3.31325 12.9617 5.03992 14.9917 7.32659 15.4467C6.59256 15.6484 5.82163 15.6764 5.07492 15.5283C5.39179 16.5229 6.01238 17.3931 6.84944 18.0168C7.6865 18.6404 8.69794 18.986 9.74159 19.005C7.97253 20.4056 5.7796 21.1626 3.52325 21.1517C3.12659 21.1517 2.72992 21.1283 2.33325 21.0817C4.54992 22.505 7.18659 23.3333 10.0099 23.3333C19.2033 23.3333 24.2549 15.7033 24.2549 9.08833C24.2549 8.86667 24.2549 8.65667 24.2433 8.435C25.2233 7.735 26.0633 6.84833 26.7399 5.83333Z" fill="#00234C"/>
</svg>
