<svg width="19" height="18" viewBox="0 0 19 18" fill="none" xmlns="http://www.w3.org/2000/svg">
<path d="M13.25 13.5C13.6478 13.5 14.0294 13.658 14.3107 13.9393C14.592 14.2206 14.75 14.6022 14.75 15C14.75 15.3978 14.592 15.7794 14.3107 16.0607C14.0294 16.342 13.6478 16.5 13.25 16.5C12.8522 16.5 12.4706 16.342 12.1893 16.0607C11.908 15.7794 11.75 15.3978 11.75 15C11.75 14.1675 12.4175 13.5 13.25 13.5ZM1.25 1.5H3.7025L4.4075 3H15.5C15.6989 3 15.8897 3.07902 16.0303 3.21967C16.171 3.36032 16.25 3.55109 16.25 3.75C16.25 3.8775 16.2125 4.005 16.16 4.125L13.475 8.9775C13.22 9.435 12.725 9.75 12.1625 9.75H6.575L5.9 10.9725L5.8775 11.0625C5.8775 11.1122 5.89725 11.1599 5.93242 11.1951C5.96758 11.2302 6.01527 11.25 6.065 11.25H14.75V12.75H5.75C5.35218 12.75 4.97064 12.592 4.68934 12.3107C4.40804 12.0294 4.25 11.6478 4.25 11.25C4.25 10.9875 4.3175 10.74 4.43 10.53L5.45 8.6925L2.75 3H1.25V1.5ZM5.75 13.5C6.14782 13.5 6.52936 13.658 6.81066 13.9393C7.09196 14.2206 7.25 14.6022 7.25 15C7.25 15.3978 7.09196 15.7794 6.81066 16.0607C6.52936 16.342 6.14782 16.5 5.75 16.5C5.35218 16.5 4.97064 16.342 4.68934 16.0607C4.40804 15.7794 4.25 15.3978 4.25 15C4.25 14.1675 4.9175 13.5 5.75 13.5ZM12.5 8.25L14.585 4.5H5.105L6.875 8.25H12.5Z" fill="#00234C"/>
</svg>
