<svg width="129" height="34" viewBox="0 0 129 34" fill="none" xmlns="http://www.w3.org/2000/svg">
<g clip-path="url(#clip0_152_42)">
<path d="M41.8666 17.0697L30.8236 33.888L25.5566 30.4116C27.4311 29.3766 28.7013 27.3773 28.7013 25.0803C28.7013 24.0786 28.4596 23.1334 28.0318 22.3001L37.4185 8.00439L41.8666 17.0697Z" fill="#2F80DD"/>
<path d="M18.1946 20.9357C17.1855 22.022 16.5678 23.4787 16.5678 25.0803C16.5678 27.8125 18.3646 30.124 20.8381 30.8916L16.2986 33.888L0 9.06552L4.44792 0L18.1946 20.9357Z" fill="#2F80DD"/>
</g>
<path d="M58.896 27L54.16 15.32H56.624L60.08 24.056L63.568 15.32H66.016L61.104 27H58.896ZM66.896 27V15.32H74.384V17.416H69.168V20.088H74.112L74.096 22.088H69.168V24.904H74.624V27H66.896ZM86.5639 15.32V27H84.2599L78.3879 18.936H78.3239V27H76.0519V15.32H78.3399L84.2119 23.336H84.2919V15.32H86.5639ZM88.3175 27V15.32H92.6215C96.2695 15.32 98.8135 17.72 98.8135 21.144C98.8135 24.552 96.2535 27 92.6215 27H88.3175ZM90.5895 24.984H92.4135C94.7015 24.984 96.3655 23.352 96.3655 21.128C96.3655 18.92 94.7175 17.336 92.4135 17.336H90.5895V24.984ZM100.255 27V15.32H104.607C106.959 15.32 108.639 16.76 108.639 18.808C108.639 20.52 107.455 21.832 105.679 22.216L109.263 27H106.431L103.135 22.328H102.527V27H100.255ZM102.527 20.488H104.303C105.407 20.488 106.223 19.8 106.223 18.856C106.223 17.928 105.423 17.256 104.303 17.256H102.527V20.488ZM109.504 27V24.888H111.056V17.416H109.504V15.304H114.864V17.416H113.328V24.888H114.864V27H109.504ZM115.144 27L119.64 20.968L115.56 15.32H118.36L121.192 19.4L124.024 15.32H126.792L122.696 20.984L127.208 27H124.36L121.144 22.552L117.928 27H115.144Z" fill="#2F80DD"/>
<defs>
<clipPath id="clip0_152_42">
<rect width="42" height="34" fill="white"/>
</clipPath>
</defs>
</svg>
